<svg
                      xmlns="http://www.w3.org/2000/svg"
                      width="18"
                      height="18"
                      fill="none"
                      viewBox="0 0 23 22"
                    >
                      <path
                        d="M14.7084 10.9082C16.0834 9.89984 17 8.29567 17 6.50817C17.0459 3.529 14.6625 1.054 11.7292 0.916503C8.56671 0.779003 6.00004 3.29984 6.00004 6.4165C6.00004 8.24984 6.91671 9.89984 8.29171 10.9082C4.80837 12.1915 2.33337 15.5373 2.33337 19.479C2.33337 19.6165 2.33337 19.7998 2.33337 19.9373C2.33337 20.0748 2.42504 20.1665 2.56254 20.1665H4.39587C4.53337 20.1665 4.62504 20.0748 4.62504 19.9373C4.62504 19.7998 4.62504 19.6623 4.62504 19.479C4.62504 15.6748 7.69587 12.604 11.5 12.604C15.3042 12.604 18.375 15.6748 18.375 19.479C18.375 19.6165 18.375 19.754 18.375 19.9373C18.375 20.0748 18.4667 20.1665 18.6042 20.1665H20.4375C20.575 20.1665 20.6667 20.0748 20.6667 19.9373C20.6667 19.7998 20.6667 19.6165 20.6667 19.479C20.6667 15.5373 18.1917 12.1915 14.7084 10.9082ZM11.5 9.62484C9.71254 9.62484 8.29171 8.204 8.29171 6.4165C8.29171 4.629 9.71254 3.20817 11.5 3.20817C13.2875 3.20817 14.7084 4.629 14.7084 6.4165C14.7084 8.204 13.2875 9.62484 11.5 9.62484Z"
                        fill="#1a1a1a"
                      ></path>
                    </svg>