<svg
                      xmlns="http://www.w3.org/2000/svg"
                      width="18"
                      height="18"
                      fill="#1a1a1a"
                      viewBox="0 0 24 24"
                    >
                      <path
                        fillRule="evenodd"
                        d="M13.139 10l.844-5.066a2 2 0 00-1.279-2.205l-.419-.155-2.604 7.205V20h8.8l1.467-8.836A1 1 0 0018.961 10h-5.822zm-5.458-.571L11.089 0l2.308.853a4 4 0 012.559 4.41L15.5 8h3.461a3 3 0 012.96 3.491l-1.573 9.477C20.25 21.566 19.779 22 19.23 22H7.681V9.429z"
                      ></path>
                      <path d="M3.135 9.429C2.503 9.429 2 9.989 2 10.68v10.069C2 21.427 2.508 22 3.135 22h2.273V9.429H3.135z"></path>
                    </svg>